<svg width="400" height="230" viewBox="0 0 400 230" fill="none" xmlns="http://www.w3.org/2000/svg">
<g clip-path="url(#clip0_244_3018)">
<rect width="400" height="230" rx="28" fill="#01C5F9"/>
<path d="M119.5 75C193.535 88.3057 237.65 99.2038 279.5 96C312.167 88.3529 321 87 356 90V90C379.918 96.1502 402.918 113.29 402.301 137.978L400 230H116L119.5 75Z" fill="#FFC006"/>
<path d="M248 166.5C336 324 191.187 382 91.5 382C-8.18743 382 -89 298.725 -89 196C-89 93.275 -93.6874 6.5 6 6.5C76.5 124 141.5 1 248 166.5Z" fill="#3226AE"/>
<rect x="38" y="40" width="46" height="30" rx="6" fill="#E8E6E6" fill-opacity="0.6"/>
<path d="M40.3118 195H38.343L41.9276 184.818H44.2045L47.794 195H45.8253L43.1058 186.906H43.0263L40.3118 195ZM40.3764 191.008H45.7457V192.489H40.3764V191.008ZM50.8553 184.818V195H49.0556V184.818H50.8553ZM56.0866 195.149C55.321 195.149 54.6598 194.99 54.103 194.672C53.5495 194.35 53.1236 193.896 52.8253 193.31C52.527 192.72 52.3778 192.025 52.3778 191.227C52.3778 190.441 52.527 189.752 52.8253 189.158C53.1269 188.562 53.5478 188.098 54.0881 187.766C54.6283 187.432 55.263 187.264 55.9922 187.264C56.4628 187.264 56.907 187.34 57.3246 187.493C57.7455 187.642 58.1167 187.874 58.4382 188.189C58.763 188.504 59.0182 188.905 59.2038 189.392C59.3894 189.876 59.4822 190.453 59.4822 191.122V191.674H53.223V190.461H57.7571C57.7538 190.116 57.6792 189.81 57.5334 189.541C57.3875 189.269 57.1837 189.056 56.9219 188.9C56.6634 188.744 56.3617 188.666 56.017 188.666C55.6491 188.666 55.326 188.756 55.0476 188.935C54.7692 189.11 54.5521 189.342 54.3963 189.631C54.2438 189.916 54.166 190.229 54.1626 190.57V191.629C54.1626 192.073 54.2438 192.455 54.4062 192.773C54.5687 193.088 54.7957 193.33 55.0874 193.499C55.379 193.664 55.7204 193.747 56.1115 193.747C56.3733 193.747 56.6103 193.711 56.8224 193.638C57.0346 193.562 57.2185 193.451 57.3743 193.305C57.5301 193.159 57.6477 192.978 57.7273 192.763L59.4077 192.952C59.3016 193.396 59.0994 193.784 58.8011 194.115C58.5062 194.443 58.1283 194.698 57.6676 194.881C57.2069 195.06 56.6799 195.149 56.0866 195.149ZM62.3123 187.364L63.8535 190.183L65.4196 187.364H67.3237L65.0218 191.182L67.3635 195H65.4693L63.8535 192.251L62.2527 195H60.3436L62.6703 191.182L60.4032 187.364H62.3123ZM77.8013 187.617C77.7549 187.183 77.5594 186.845 77.2147 186.603C76.8733 186.361 76.4292 186.24 75.8823 186.24C75.4978 186.24 75.168 186.298 74.8929 186.414C74.6178 186.53 74.4074 186.687 74.2615 186.886C74.1157 187.085 74.0411 187.312 74.0378 187.567C74.0378 187.78 74.0859 187.964 74.182 188.119C74.2814 188.275 74.4157 188.408 74.5847 188.517C74.7537 188.623 74.941 188.713 75.1465 188.786C75.352 188.858 75.5591 188.92 75.7679 188.969L76.7225 189.208C77.1069 189.298 77.4765 189.419 77.8311 189.571C78.1891 189.723 78.5089 189.916 78.7907 190.148C79.0757 190.38 79.3011 190.66 79.4668 190.988C79.6325 191.316 79.7154 191.701 79.7154 192.141C79.7154 192.738 79.5629 193.263 79.258 193.717C78.9531 194.168 78.5123 194.521 77.9355 194.776C77.3622 195.028 76.6678 195.154 75.8525 195.154C75.0603 195.154 74.3726 195.031 73.7892 194.786C73.2092 194.541 72.7551 194.183 72.427 193.712C72.1022 193.242 71.9266 192.668 71.9 191.992H73.7147C73.7412 192.347 73.8506 192.642 74.0428 192.877C74.235 193.112 74.4853 193.288 74.7935 193.404C75.1051 193.52 75.4531 193.578 75.8375 193.578C76.2386 193.578 76.5899 193.518 76.8915 193.399C77.1964 193.277 77.4351 193.107 77.6074 192.892C77.7798 192.673 77.8676 192.418 77.8709 192.126C77.8676 191.861 77.7897 191.643 77.6373 191.47C77.4848 191.295 77.271 191.149 76.9959 191.033C76.7241 190.913 76.406 190.807 76.0414 190.714L74.883 190.416C74.0444 190.201 73.3816 189.874 72.8944 189.437C72.4105 188.996 72.1685 188.411 72.1685 187.682C72.1685 187.082 72.3309 186.557 72.6557 186.106C72.9838 185.655 73.4296 185.305 73.9931 185.057C74.5565 184.805 75.1945 184.679 75.9071 184.679C76.6297 184.679 77.2627 184.805 77.8063 185.057C78.3532 185.305 78.7824 185.652 79.0939 186.096C79.4055 186.537 79.5662 187.044 79.5762 187.617H77.8013ZM81.2802 195V187.364H83.0004V188.661H83.0898C83.2489 188.224 83.5124 187.882 83.8803 187.637C84.2482 187.388 84.6874 187.264 85.1978 187.264C85.7148 187.264 86.1507 187.39 86.5053 187.642C86.8633 187.891 87.1152 188.23 87.261 188.661H87.3406C87.5096 188.237 87.7946 187.899 88.1957 187.647C88.6 187.392 89.079 187.264 89.6325 187.264C90.3351 187.264 90.9085 187.486 91.3526 187.93C91.7968 188.375 92.0188 189.022 92.0188 189.874V195H90.2141V190.153C90.2141 189.679 90.0882 189.332 89.8363 189.114C89.5844 188.892 89.2762 188.781 88.9116 188.781C88.4774 188.781 88.1377 188.916 87.8924 189.188C87.6505 189.457 87.5295 189.806 87.5295 190.237V195H85.7646V190.078C85.7646 189.684 85.6452 189.369 85.4066 189.134C85.1713 188.898 84.863 188.781 84.4819 188.781C84.2234 188.781 83.988 188.847 83.7759 188.979C83.5638 189.109 83.3948 189.293 83.2688 189.531C83.1429 189.767 83.0799 190.042 83.0799 190.357V195H81.2802ZM93.8446 195V187.364H95.6444V195H93.8446ZM94.7495 186.28C94.4644 186.28 94.2192 186.185 94.0137 185.996C93.8082 185.804 93.7054 185.574 93.7054 185.305C93.7054 185.034 93.8082 184.803 94.0137 184.614C94.2192 184.422 94.4644 184.326 94.7495 184.326C95.0378 184.326 95.2831 184.422 95.4853 184.614C95.6908 184.803 95.7935 185.034 95.7935 185.305C95.7935 185.574 95.6908 185.804 95.4853 185.996C95.2831 186.185 95.0378 186.28 94.7495 186.28ZM101.308 187.364V188.756H96.9183V187.364H101.308ZM98.0021 185.534H99.8018V192.703C99.8018 192.945 99.8383 193.131 99.9112 193.26C99.9875 193.386 100.087 193.472 100.21 193.518C100.332 193.565 100.468 193.588 100.617 193.588C100.73 193.588 100.833 193.58 100.925 193.563C101.022 193.547 101.094 193.532 101.144 193.518L101.447 194.925C101.351 194.959 101.214 194.995 101.035 195.035C100.859 195.075 100.644 195.098 100.388 195.104C99.9377 195.118 99.5317 195.05 99.1705 194.901C98.8092 194.748 98.5225 194.513 98.3104 194.195C98.1016 193.876 97.9988 193.479 98.0021 193.001V185.534ZM104.777 190.526V195H102.977V184.818H104.737V188.661H104.827C105.006 188.23 105.283 187.891 105.657 187.642C106.035 187.39 106.516 187.264 107.099 187.264C107.629 187.264 108.092 187.375 108.486 187.597C108.88 187.819 109.185 188.144 109.401 188.572C109.619 188.999 109.729 189.521 109.729 190.138V195H107.929V190.416C107.929 189.902 107.797 189.503 107.531 189.218C107.27 188.93 106.902 188.786 106.428 188.786C106.11 188.786 105.825 188.855 105.573 188.994C105.324 189.13 105.128 189.327 104.986 189.586C104.847 189.844 104.777 190.158 104.777 190.526Z" fill="white"/>
<path d="M326.282 192.194C325.463 192.194 324.76 191.987 324.174 191.572C323.59 191.155 323.141 190.553 322.826 189.768C322.515 188.979 322.359 188.029 322.359 186.919C322.362 185.809 322.52 184.864 322.831 184.085C323.146 183.303 323.595 182.706 324.179 182.295C324.765 181.884 325.466 181.679 326.282 181.679C327.097 181.679 327.798 181.884 328.385 182.295C328.971 182.706 329.42 183.303 329.732 184.085C330.047 184.867 330.204 185.812 330.204 186.919C330.204 188.033 330.047 188.984 329.732 189.773C329.42 190.558 328.971 191.158 328.385 191.572C327.801 191.987 327.1 192.194 326.282 192.194ZM326.282 190.638C326.918 190.638 327.42 190.325 327.788 189.698C328.159 189.068 328.345 188.142 328.345 186.919C328.345 186.11 328.26 185.431 328.091 184.881C327.922 184.33 327.684 183.916 327.375 183.638C327.067 183.356 326.703 183.215 326.282 183.215C325.649 183.215 325.148 183.53 324.78 184.16C324.412 184.786 324.227 185.706 324.223 186.919C324.22 187.731 324.301 188.414 324.467 188.967C324.636 189.521 324.875 189.938 325.183 190.22C325.491 190.499 325.857 190.638 326.282 190.638ZM331.955 192L336.286 183.429V183.359H331.259V181.818H338.195V183.394L333.869 192H331.955ZM343.975 181.341L340.694 193.531H339.118L342.4 181.341H343.975ZM345.104 192V190.668L348.639 187.202C348.977 186.861 349.259 186.558 349.484 186.293C349.709 186.027 349.878 185.771 349.991 185.522C350.104 185.273 350.16 185.008 350.16 184.727C350.16 184.405 350.087 184.13 349.941 183.901C349.796 183.669 349.595 183.49 349.34 183.364C349.085 183.238 348.795 183.175 348.47 183.175C348.135 183.175 347.842 183.245 347.59 183.384C347.338 183.52 347.142 183.714 347.003 183.966C346.867 184.218 346.799 184.518 346.799 184.866H345.044C345.044 184.219 345.192 183.658 345.487 183.18C345.782 182.703 346.188 182.334 346.705 182.072C347.225 181.81 347.822 181.679 348.495 181.679C349.177 181.679 349.777 181.807 350.294 182.062C350.811 182.317 351.212 182.667 351.498 183.111C351.786 183.555 351.93 184.062 351.93 184.632C351.93 185.013 351.857 185.388 351.711 185.756C351.565 186.124 351.309 186.531 350.941 186.979C350.576 187.426 350.064 187.968 349.404 188.604L347.65 190.389V190.459H352.084V192H345.104ZM353.397 190.111V188.644L357.717 181.818H358.94V183.906H358.194L355.286 188.515V188.594H361.316V190.111H353.397ZM358.254 192V189.663L358.274 189.007V181.818H360.014V192H358.254Z" fill="white"/>
<rect x="38" y="120.5" width="6" height="6" rx="3" fill="white"/>
<rect x="56" y="120.5" width="6" height="6" rx="3" fill="white"/>
<rect x="74" y="120.5" width="6" height="6" rx="3" fill="white"/>
<rect x="92" y="120.5" width="6" height="6" rx="3" fill="white"/>
<rect x="135" y="120.5" width="6" height="6" rx="3" fill="white"/>
<rect x="153" y="120.5" width="6" height="6" rx="3" fill="white"/>
<rect x="171" y="120.5" width="6" height="6" rx="3" fill="white"/>
<rect x="189" y="120.5" width="6" height="6" rx="3" fill="white"/>
<rect x="232" y="120.5" width="6" height="6" rx="3" fill="white"/>
<rect x="250" y="120.5" width="6" height="6" rx="3" fill="white"/>
<rect x="268" y="120.5" width="6" height="6" rx="3" fill="white"/>
<rect x="286" y="120.5" width="6" height="6" rx="3" fill="white"/>
<path d="M321.7 118.679C322.187 118.682 322.661 118.768 323.122 118.938C323.586 119.103 324.003 119.375 324.375 119.753C324.746 120.127 325.041 120.629 325.259 121.259C325.478 121.889 325.588 122.668 325.588 123.596C325.591 124.471 325.498 125.253 325.309 125.942C325.124 126.629 324.857 127.209 324.509 127.683C324.161 128.156 323.741 128.518 323.251 128.766C322.76 129.015 322.209 129.139 321.595 129.139C320.952 129.139 320.382 129.013 319.885 128.761C319.391 128.509 318.992 128.165 318.687 127.727C318.382 127.29 318.195 126.789 318.125 126.226H319.94C320.033 126.63 320.222 126.952 320.507 127.19C320.795 127.426 321.158 127.543 321.595 127.543C322.301 127.543 322.845 127.237 323.226 126.624C323.607 126.01 323.798 125.159 323.798 124.068H323.728C323.566 124.36 323.355 124.612 323.097 124.824C322.838 125.033 322.545 125.193 322.217 125.306C321.892 125.419 321.547 125.475 321.183 125.475C320.586 125.475 320.049 125.333 319.572 125.048C319.098 124.763 318.722 124.371 318.443 123.874C318.168 123.377 318.029 122.809 318.026 122.169C318.026 121.506 318.178 120.911 318.483 120.384C318.791 119.854 319.221 119.436 319.771 119.131C320.321 118.823 320.964 118.672 321.7 118.679ZM321.705 120.17C321.347 120.17 321.024 120.258 320.735 120.434C320.45 120.606 320.225 120.842 320.059 121.14C319.897 121.435 319.816 121.765 319.816 122.129C319.819 122.491 319.9 122.819 320.059 123.114C320.222 123.409 320.442 123.642 320.72 123.815C321.002 123.987 321.324 124.073 321.685 124.073C321.953 124.073 322.204 124.022 322.436 123.919C322.668 123.816 322.87 123.674 323.042 123.491C323.218 123.306 323.354 123.095 323.45 122.86C323.549 122.625 323.597 122.376 323.594 122.114C323.594 121.766 323.511 121.445 323.345 121.15C323.183 120.855 322.959 120.618 322.674 120.439C322.392 120.26 322.069 120.17 321.705 120.17ZM333.583 129.139C332.92 129.139 332.327 129.015 331.803 128.766C331.279 128.514 330.863 128.17 330.555 127.732C330.25 127.295 330.088 126.794 330.068 126.231H331.858C331.891 126.648 332.072 126.99 332.4 127.255C332.728 127.517 333.122 127.648 333.583 127.648C333.944 127.648 334.266 127.565 334.547 127.399C334.829 127.233 335.051 127.003 335.214 126.708C335.376 126.413 335.456 126.077 335.452 125.699C335.456 125.314 335.374 124.973 335.209 124.675C335.043 124.376 334.816 124.143 334.527 123.974C334.239 123.801 333.908 123.715 333.533 123.715C333.228 123.712 332.928 123.768 332.633 123.884C332.338 124 332.105 124.153 331.932 124.342L330.267 124.068L330.799 118.818H336.705V120.359H332.325L332.032 123.059H332.091C332.28 122.837 332.547 122.653 332.892 122.507C333.237 122.358 333.614 122.283 334.025 122.283C334.642 122.283 335.192 122.429 335.676 122.721C336.16 123.009 336.541 123.407 336.819 123.914C337.098 124.421 337.237 125.001 337.237 125.654C337.237 126.327 337.081 126.927 336.77 127.454C336.461 127.978 336.032 128.39 335.482 128.692C334.935 128.99 334.302 129.139 333.583 129.139ZM341.519 127.111V125.644L345.839 118.818H347.062V120.906H346.316L343.408 125.515V125.594H349.438V127.111H341.519ZM346.376 129V126.663L346.396 126.007V118.818H348.136V129H346.376ZM357.555 129.139C357.068 129.136 356.593 129.051 356.129 128.886C355.665 128.717 355.247 128.443 354.876 128.065C354.504 127.684 354.21 127.179 353.991 126.549C353.772 125.916 353.664 125.132 353.668 124.197C353.668 123.326 353.76 122.549 353.946 121.866C354.132 121.183 354.398 120.606 354.746 120.136C355.094 119.662 355.514 119.3 356.004 119.052C356.498 118.803 357.05 118.679 357.66 118.679C358.299 118.679 358.866 118.805 359.36 119.057C359.857 119.309 360.258 119.653 360.563 120.091C360.868 120.525 361.057 121.016 361.13 121.562H359.315C359.223 121.171 359.032 120.86 358.744 120.628C358.459 120.393 358.097 120.275 357.66 120.275C356.954 120.275 356.41 120.581 356.029 121.195C355.651 121.808 355.461 122.65 355.457 123.72H355.527C355.689 123.429 355.9 123.178 356.158 122.969C356.417 122.761 356.709 122.6 357.033 122.487C357.362 122.371 357.708 122.313 358.072 122.313C358.669 122.313 359.204 122.456 359.678 122.741C360.156 123.026 360.533 123.419 360.812 123.919C361.09 124.416 361.228 124.986 361.224 125.629C361.228 126.299 361.075 126.9 360.767 127.434C360.459 127.964 360.03 128.382 359.479 128.687C358.929 128.992 358.288 129.143 357.555 129.139ZM357.545 127.648C357.907 127.648 358.23 127.56 358.515 127.384C358.8 127.209 359.025 126.972 359.191 126.673C359.357 126.375 359.438 126.04 359.435 125.669C359.438 125.304 359.358 124.975 359.196 124.68C359.037 124.385 358.817 124.151 358.535 123.979C358.253 123.806 357.932 123.72 357.57 123.72C357.302 123.72 357.052 123.772 356.82 123.874C356.588 123.977 356.385 124.12 356.213 124.302C356.041 124.481 355.905 124.69 355.805 124.928C355.709 125.164 355.66 125.415 355.656 125.684C355.66 126.039 355.742 126.365 355.905 126.663C356.067 126.962 356.291 127.2 356.576 127.379C356.861 127.558 357.184 127.648 357.545 127.648Z" fill="white"/>
<path d="M339.281 48.4618L336.275 62.5172H332.638L335.645 48.4618H339.281ZM354.579 57.5375L356.493 52.2594L357.594 57.5375H354.579ZM358.638 62.5172H362L359.063 48.4618H355.961C355.262 48.4618 354.673 48.8671 354.412 49.492L348.956 62.5172H352.775L353.533 60.4181H358.197L358.638 62.5172ZM349.145 57.9286C349.161 54.2191 344.017 54.0136 344.052 52.3562C344.063 51.8526 344.543 51.3161 345.594 51.1789C346.114 51.1119 347.551 51.0575 349.18 51.808L349.817 48.8263C348.942 48.5098 347.816 48.2051 346.415 48.2051C342.821 48.2051 340.292 50.1145 340.272 52.8509C340.249 54.8745 342.078 56.0027 343.454 56.6767C344.872 57.3655 345.347 57.8072 345.34 58.4227C345.33 59.3657 344.209 59.7833 343.165 59.7991C341.336 59.8276 340.276 59.3047 339.431 58.9108L338.771 61.9921C339.622 62.3816 341.19 62.7205 342.814 62.7378C346.635 62.7378 349.134 60.8509 349.145 57.9286ZM334.085 48.4618L328.193 62.5172H324.35L321.451 51.3C321.275 50.6102 321.122 50.3567 320.587 50.0652C319.713 49.5904 318.269 49.1462 317 48.8699L317.086 48.4618H323.273C324.061 48.4618 324.77 48.9862 324.951 49.8942L326.483 58.0282L330.265 48.4618H334.085Z" fill="white"/>
</g>
<defs>
<clipPath id="clip0_244_3018">
<rect width="400" height="230" rx="28" fill="white"/>
</clipPath>
</defs>
</svg>
