<svg width="110" height="84" viewBox="0 0 110 84" fill="none" xmlns="http://www.w3.org/2000/svg">
<path d="M21.25 10.705C16.6245 5.56349 12.3119 3.60587 1 2V83.5H109V15.0575C100.757 12.1998 96.1521 12.0216 87.9062 15.0575C81.4899 20.8725 77.4193 24.1874 68.5 30.2913C57.7063 34.9277 51.2016 35.5354 38.125 30.2913C30.0434 22.7619 26.1953 18.4877 21.25 10.705Z" fill="url(#paint0_linear_244_3008)"/>
<path d="M1 1C12.3119 2.60587 16.6245 4.56349 21.25 9.70503C26.1953 17.4877 30.0434 21.7619 38.125 29.2913C51.2016 34.5354 57.7063 33.9277 68.5 29.2913C77.4193 23.1874 81.4899 19.8725 87.9062 14.0575C96.1521 11.0216 100.757 11.1998 109 14.0575" stroke="#4536A9" stroke-width="2"/>
<defs>
<linearGradient id="paint0_linear_244_3008" x1="55" y1="2" x2="55" y2="83.5" gradientUnits="userSpaceOnUse">
<stop stop-color="#F3F3FE"/>
<stop offset="1" stop-color="#F1F3FF"/>
</linearGradient>
</defs>
</svg>
