<svg width="110" height="84" viewBox="0 0 110 84" fill="none" xmlns="http://www.w3.org/2000/svg">
<path d="M15.1231 15.7129C9.60902 17.2544 6.51305 17.5952 1 15.7129V84H109V8.1155C104.628 12.3911 101.846 13.9194 96.5385 15.7129C87.9839 17.4753 83.8997 17.3218 77.4308 15.7129C70.842 11.6185 66.9322 9.21854 59.1538 4.57003C49.0927 1.34029 43.4617 0.951857 33.4 4.57003C27.2415 8.59981 23.3234 11.0234 15.1231 15.7129Z" fill="url(#paint0_linear_244_3015)"/>
<path d="M1 14.7129C6.51305 16.5952 9.60902 16.2544 15.1231 14.7129C23.3234 10.0234 27.2415 7.59982 33.4 3.57003C43.4617 -0.0481435 49.0927 0.340291 59.1538 3.57003C66.9322 8.21854 70.842 10.6185 77.4308 14.7129C83.8997 16.3218 87.9839 16.4753 96.5385 14.7129C101.846 12.9194 104.628 11.3911 109 7.1155" stroke="white" stroke-width="2"/>
<defs>
<linearGradient id="paint0_linear_244_3015" x1="55" y1="2" x2="55" y2="84" gradientUnits="userSpaceOnUse">
<stop stop-color="#F96151"/>
<stop offset="1" stop-color="#FE6055"/>
</linearGradient>
</defs>
</svg>
