<svg width="110" height="83" viewBox="0 0 110 83" fill="none" xmlns="http://www.w3.org/2000/svg">
<path d="M21.25 24.295C16.6245 29.4365 12.3119 31.3941 1 33V82.5H109V19.9425C100.757 22.8002 96.1521 22.9784 87.9062 19.9425C81.4899 14.1275 77.4193 10.8126 68.5 4.70865C57.7063 0.0722973 51.2016 -0.535407 38.125 4.70865C30.0434 12.2381 26.1953 16.5123 21.25 24.295Z" fill="url(#paint0_linear_244_3000)"/>
<path d="M1 33C12.3119 31.3941 16.6245 29.4365 21.25 24.295C26.1953 16.5123 30.0434 12.2381 38.125 4.70865C51.2016 -0.535407 57.7063 0.0722972 68.5 4.70865C77.4193 10.8126 81.4899 14.1275 87.9062 19.9425C96.1521 22.9784 100.757 22.8002 109 19.9425" stroke="#4536A9" stroke-width="2"/>
<defs>
<linearGradient id="paint0_linear_244_3000" x1="55" y1="1" x2="55" y2="82.5" gradientUnits="userSpaceOnUse">
<stop stop-color="#F3F3FE"/>
<stop offset="1" stop-color="#F1F3FF"/>
</linearGradient>
</defs>
</svg>
