<svg width="26" height="20" viewBox="0 0 26 20" fill="none" xmlns="http://www.w3.org/2000/svg">
<path d="M4 19.35C1.4 18.45 0 16 0 12.3C0 8 0.750003 5.85 2.8 4.05C4.3 2.7 4.9 2.5 7.55 2.5C10.05 2.5 10.75 2.7 11.75 3.7C13.7 5.65 18.5 15.85 18.5 18.1V20L12.15 19.95C8.55 19.95 5 19.7 4 19.35Z" fill="white"/>
<path d="M14.5 11.9C10.85 4.65 10.1 3.85 7.15 4.1C5.2 4.25 5 4.15 5 3.15C5 2.1 5.25 2 7.25 2C8.5 2 9.5 1.8 9.5 1.6C9.5 0.799998 12.05 0 14.7 0C17.95 0 19.1 0.949998 21.25 5.6C22.1 7.3 22.85 8.85 23.05 9C24 9.85 26 14.75 26 16.25V18H21.8H17.55L14.5 11.9ZM21.45 10.7C19.7 7.3 17.95 4.6 18.55 6.25C19.2 7.9 23.1 15.05 23.25 14.9C23.4 14.8 22.55 12.9 21.45 10.7Z" fill="#8880CF"/>
</svg>
