<svg width="20" height="16" viewBox="0 0 20 16" fill="none" xmlns="http://www.w3.org/2000/svg">
<path d="M9.75 10.45C8.4 7.7 6.84999 5.2 6.39999 4.95C5.89999 4.7 5.5 4 5.5 3.5C5.5 2.9 5.84999 2.5 6.39999 2.5C6.84999 2.5 8.20001 2 9.35001 1.4L11.45 0.25L12.85 1.3C14.15 2.25 19.5 11.5 19.5 12.8C19.5 13.15 18.5 13.35 16.75 13.3C14.2 13.2 14 13.3 14 14.35C14 15.1 13.7 15.5 13.15 15.5C12.5 15.5 11.5 13.95 9.75 10.45Z" fill="#D1CFEF"/>
<path d="M1.85002 13.6C1.10002 12.85 0.350022 11.5 0.200022 10.6C-0.199978 8.50001 1.15001 4.85002 2.75001 3.80002C4.35001 2.75002 6.65 2.80002 7.65 3.90002C8.4 4.70002 13.5 14.2 13.5 14.75C13.5 14.9 11.2 15 8.35002 15C3.35002 15 3.15002 14.95 1.85002 13.6Z" fill="#3326AE"/>
</svg>
