<svg width="7" height="12" viewBox="0 0 7 12" fill="none" xmlns="http://www.w3.org/2000/svg">
<path d="M0.650035 6.25C0.700035 0.7 0.749999 0.5 1.8 0.5C2.65 0.5 3.00001 0.95 3.50001 2.75C4.35001 5.75 5.00001 6.04999 5.00001 3.54999C5.00001 1.84999 5.15001 1.5 6.00001 1.5C6.95001 1.5 7.00001 1.84999 7.00001 6.79999C7.00001 11.9 6.95004 12.05 5.90003 11.9C5.10003 11.8 4.6 11.1 4.05 9.34998C3.1 6.54998 2.50001 6.74998 2.50001 9.84998C2.50001 11.65 2.35 12 1.55 12C0.649999 12 0.600035 11.6 0.650035 6.25Z" fill="#FF392B"/>
</svg>
