<svg width="16" height="7" viewBox="0 0 16 7" fill="none" xmlns="http://www.w3.org/2000/svg">
<path d="M12.8 6.54997C12.3 5.74997 13.15 4.09997 14.15 3.79997C15.6 3.44997 16.05 3.85 15.85 5.4C15.7 6.45 15.35 6.74995 14.35 6.84995C13.6 6.89995 12.9 6.74997 12.8 6.54997Z" fill="#FF6055"/>
<path d="M7 5.25C7 4.25 7.25 4 8.25 4C9.25 4 9.5 4.25 9.5 5.25C9.5 6.25 9.25 6.5 8.25 6.5C7.25 6.5 7 6.25 7 5.25Z" fill="#FF0000"/>
<path d="M0.95004 6.65003C0.65004 4.45003 1.15 3.39998 2.35 3.84998C3.3 4.19998 4.05004 3.05003 3.70004 1.90003C3.45004 1.00003 3.85003 0.800005 5.75003 1C7.10003 1.15 7.10004 1.15002 6.70004 2.70002C6.55004 3.40002 6.15002 4.00002 5.80002 3.95002C4.45002 3.80002 4.05005 4.10003 3.90005 5.40003C3.80005 6.45003 3.45005 6.80003 2.40005 6.90003C1.60005 7.00003 0.95004 6.90003 0.95004 6.65003Z" fill="#FF6055"/>
<path d="M10 2.25C10 1.25 10.25 1 11.25 1C12.25 1 12.5 1.25 12.5 2.25C12.5 3.25 12.25 3.5 11.25 3.5C10.25 3.5 10 3.25 10 2.25Z" fill="#FF0000"/>
</svg>
